<svg width="157" height="57" viewBox="0 0 157 57" fill="none" xmlns="http://www.w3.org/2000/svg">
<path d="M94.3761 15.5481L80.1591 18.4254L81.3605 20.8641L64.7407 32.8163L82.8452 23.8838L83.887 25.9983L94.3761 15.5481Z" fill="white"/>
<path d="M64.4811 33.3557C64.4354 33.3556 64.3905 33.3436 64.3507 33.3208C64.3109 33.298 64.2775 33.2651 64.2536 33.2253C64.2178 33.1688 64.2041 33.1005 64.2152 33.0341C64.2263 32.9677 64.2613 32.908 64.3135 32.8667L80.7591 20.6743L79.6576 18.3638C79.64 18.3263 79.6308 18.2852 79.6308 18.2436C79.6308 18.202 79.64 18.1609 79.6576 18.1234C79.6756 18.0869 79.7015 18.0552 79.7333 18.0305C79.7651 18.0057 79.802 17.9888 79.8412 17.9808L94.06 15.0142C94.1151 15.0021 94.1726 15.0087 94.2237 15.0329C94.2749 15.0572 94.3168 15.0978 94.3434 15.1486C94.3708 15.2 94.3813 15.259 94.3734 15.317C94.3655 15.375 94.3396 15.4288 94.2995 15.4706L83.8119 26.2449C83.7818 26.2751 83.7451 26.2976 83.7048 26.3106C83.6645 26.3236 83.6218 26.3266 83.5801 26.3194C83.5385 26.3123 83.499 26.2951 83.4651 26.2694C83.4312 26.2437 83.4037 26.2102 83.3849 26.1715L82.4591 24.2359L64.5968 33.3272C64.5613 33.3467 64.5214 33.3565 64.4811 33.3557ZM80.2762 18.4412L81.3258 20.6417C81.3547 20.6984 81.3625 20.7639 81.3478 20.8261C81.3332 20.8883 81.297 20.9429 81.2459 20.98L67.2187 31.3875L82.4631 23.645C82.4953 23.631 82.5299 23.6238 82.5649 23.6238C82.5998 23.6238 82.6344 23.631 82.6666 23.645C82.7002 23.6553 82.7314 23.6726 82.7581 23.6957C82.7849 23.7188 82.8067 23.7474 82.8223 23.7795L83.7002 25.6173L93.3058 15.7232L80.2762 18.4412Z" fill="#231F20" stroke="black" stroke-width="0.35"/>
<path d="M76.3833 32.2767L69.6783 23.3671L70.817 22.2051L65.27 19.8651L67.3506 25.896L68.5202 24.5491L76.3833 32.2767Z" fill="white"/>
<path d="M76.6234 32.2761C76.5556 32.2767 76.4903 32.2507 76.4416 32.2037L68.3948 24.6585L67.3642 25.8047C67.3328 25.8386 67.2933 25.8638 67.2493 25.8781C67.2053 25.8924 67.1584 25.8953 67.113 25.8864C67.0676 25.8775 67.0253 25.8572 66.99 25.8274C66.9548 25.7977 66.9277 25.7594 66.9116 25.7163L64.7574 19.6833C64.7393 19.6349 64.7359 19.5823 64.7474 19.532C64.7589 19.4817 64.7849 19.4358 64.8222 19.3999C64.8595 19.3641 64.9065 19.3398 64.9574 19.3301C65.0084 19.3205 65.0611 19.3258 65.109 19.3454L70.9167 21.6862C70.9574 21.7029 70.9934 21.7292 71.0216 21.7629C71.0497 21.7965 71.0693 21.8365 71.0784 21.8793C71.0864 21.9233 71.0836 21.9686 71.0703 22.0113C71.0569 22.0541 71.0333 22.0929 71.0016 22.1246L69.9831 23.1181L76.8538 31.8458C76.8962 31.8984 76.9168 31.9651 76.9116 32.0323C76.9063 32.0996 76.8756 32.1623 76.8255 32.2078C76.7697 32.2559 76.6972 32.2805 76.6234 32.2761ZM68.3948 24.0109C68.4638 24.0106 68.5303 24.0365 68.5807 24.0833L74.2025 29.3682L69.3931 23.2709C69.352 23.2198 69.3314 23.1554 69.3351 23.0901C69.3388 23.0248 69.3667 22.9631 69.4133 22.917L70.3146 22.0402L65.4445 20.0533L67.2672 25.1009L68.1927 24.0874C68.2411 24.0353 68.3076 24.0037 68.3786 23.9989L68.3948 24.0109Z" fill="#231F20" stroke="black" stroke-width="0.35"/>
<path d="M75.4314 12.1719L77.9711 12.3575L74.1792 3.13644L68.9746 11.6978L71.8586 11.9071L73.9913 33.3559L75.4314 12.1719Z" fill="white"/>
<path d="M74.0186 33.8793C73.9503 33.8796 73.8844 33.8549 73.8339 33.8103C73.7834 33.7656 73.7519 33.7042 73.7457 33.6381L71.5127 12.0588L68.6967 11.8578C68.6505 11.8536 68.6061 11.8383 68.5676 11.8131C68.5291 11.788 68.4977 11.7538 68.4763 11.7138C68.4549 11.6738 68.4442 11.6292 68.4451 11.5841C68.4461 11.539 68.4586 11.4949 68.4817 11.4558L73.9814 2.72032C74.0086 2.67915 74.0469 2.64597 74.0921 2.62435C74.1372 2.60273 74.1876 2.5935 74.2378 2.59763C74.288 2.60176 74.336 2.61911 74.3768 2.64781C74.4176 2.67651 74.4496 2.71548 74.4693 2.76052L78.4804 12.1432C78.4976 12.1853 78.5036 12.231 78.4978 12.2759C78.492 12.3209 78.4746 12.3637 78.4473 12.4005C78.4205 12.4385 78.3838 12.4689 78.3409 12.4887C78.2981 12.5085 78.2506 12.5169 78.2033 12.513L75.7967 12.3402L74.2915 33.6461C74.2873 33.713 74.2573 33.7758 74.2075 33.8221C74.1576 33.8683 74.0916 33.8945 74.0227 33.8954L74.0186 33.8793ZM69.1888 11.3352L71.7856 11.5201C71.85 11.5254 71.9105 11.5524 71.9565 11.5964C72.0026 11.6405 72.0314 11.6988 72.0379 11.7613L73.969 30.4382L75.2674 12.0588C75.269 12.0232 75.2783 11.9883 75.2947 11.9564C75.311 11.9246 75.3342 11.8964 75.3625 11.8738C75.3894 11.8506 75.4208 11.8329 75.4549 11.8218C75.4891 11.8107 75.5251 11.8066 75.561 11.8095L77.7981 11.9663L74.1675 3.44794L69.1888 11.3352Z" fill="#231F20" stroke="black" stroke-width="0.35"/>
<path d="M91.201 0.977882L78.1153 8.67574L80.4265 10.5375L66.8577 30.118L84.171 13.5446L86.2969 15.2525L91.201 0.977882Z" fill="white"/>
<path d="M67.1207 30.118C67.0571 30.1189 66.9955 30.0963 66.9473 30.0545C66.8988 30.0108 66.8677 29.9509 66.8597 29.8859C66.8517 29.8208 66.8675 29.755 66.904 29.7008L80.042 10.6811L77.9699 9.00838C77.9366 8.98182 77.9102 8.94742 77.8931 8.9082C77.876 8.86899 77.8686 8.82614 77.8717 8.7834C77.8749 8.74067 77.8883 8.69936 77.9109 8.66308C77.9335 8.6268 77.9646 8.59666 78.0014 8.5753L90.8085 1.01428C90.8541 0.986867 90.9071 0.974434 90.96 0.978705C91.0129 0.982976 91.0633 1.00374 91.104 1.03812C91.1457 1.07199 91.176 1.11802 91.1909 1.16994C91.2057 1.22185 91.2042 1.27712 91.1867 1.32817L86.3885 15.3456C86.3744 15.3851 86.3514 15.4207 86.3213 15.4497C86.2912 15.4787 86.2549 15.5002 86.2151 15.5125C86.1749 15.5247 86.1323 15.5268 86.091 15.5185C86.0498 15.5102 86.0113 15.4917 85.9788 15.4648L84.076 13.9312L67.298 30.0465C67.2504 30.0929 67.1868 30.1185 67.1207 30.118ZM78.5963 8.83753L80.566 10.4268C80.6181 10.4677 80.6525 10.5274 80.662 10.5932C80.6716 10.6591 80.6555 10.7262 80.6172 10.7804L68.8225 27.8652L83.879 13.3908C83.9271 13.3486 83.9887 13.3254 84.0524 13.3254C84.1161 13.3254 84.1777 13.3486 84.2257 13.3908L86.0142 14.8331L90.4618 1.83276L78.5963 8.83753Z" fill="#231F20" stroke="black" stroke-width="0.35"/>
<path d="M79.0292 31.737L69.8339 15.7117L71.2523 14.787L63.1531 8.53278L65.8286 18.3119L67.4162 17.2823L79.0292 31.737Z" fill="white"/>
<path d="M78.7579 31.733C78.718 31.7333 78.6786 31.725 78.6424 31.7087C78.6062 31.6923 78.5742 31.6682 78.5486 31.6383L67.1034 17.6952L65.723 18.575C65.6879 18.5981 65.6474 18.6124 65.6053 18.6165C65.5632 18.6206 65.5207 18.6145 65.4816 18.5987C65.4422 18.5844 65.4067 18.5612 65.3781 18.5311C65.3494 18.5009 65.3284 18.4646 65.3166 18.4251L62.6323 8.8693C62.6188 8.81615 62.6219 8.76023 62.6413 8.70884C62.6607 8.65745 62.6954 8.613 62.741 8.58129C62.787 8.54971 62.8418 8.53278 62.8979 8.53278C62.9541 8.53278 63.0089 8.54971 63.0549 8.58129L71.1559 14.7203C71.1892 14.7471 71.2159 14.7808 71.234 14.8191C71.2521 14.8573 71.2612 14.8991 71.2605 14.9413C71.2576 14.9832 71.2448 15.0239 71.2232 15.0602C71.2015 15.0965 71.1716 15.1274 71.1358 15.1504L69.9285 15.9158L78.9913 31.3424C79.0158 31.3823 79.0289 31.4279 79.0293 31.4745C79.0297 31.5211 79.0173 31.5669 78.9935 31.6072C78.9696 31.6475 78.9352 31.6808 78.8938 31.7036C78.8523 31.7264 78.8054 31.7379 78.7579 31.7369V31.733ZM67.1597 17.0876C67.1999 17.0877 67.2395 17.0966 67.2757 17.1137C67.3119 17.1308 67.3438 17.1555 67.369 17.1862L76.8182 28.6911L69.3409 15.9434C69.307 15.8853 69.2969 15.8167 69.3126 15.7515C69.3283 15.6863 69.3686 15.6294 69.4254 15.5923L70.5281 14.89L63.3688 9.48479L65.7351 17.9398L67.0148 17.1271C67.0585 17.1011 67.1086 17.0874 67.1597 17.0876Z" fill="#231F20" stroke="black" stroke-width="0.35"/>
<path d="M0 40.8954H3.13823V52.9512H8.13787V55.632H0V40.8954Z" fill="#231F20"/>
<path d="M10.1145 40.8954H18.7523V43.553H13.2527V46.5814H18.7523V49.2622H13.2527V52.9512H18.7523V55.632H10.1145V40.8954Z" fill="#231F20"/>
<path d="M25.6676 40.8954H29.2596L34.9207 55.632H31.3518L30.1596 52.4992H24.4792L23.4562 55.632H20.0911L25.6676 40.8954ZM27.779 45.2642C27.6084 44.6126 27.4723 43.9525 27.3713 43.2864C27.2619 43.9693 27.1181 44.6462 26.9406 45.3144L25.3599 50.0116H29.4212L27.779 45.2642Z" fill="#231F20"/>
<path d="M36.459 40.8954H40.4587C43.0239 40.8954 44.9545 41.1194 46.5736 42.3362C48.3389 43.6573 49.285 45.6968 49.285 48.2926C49.285 50.8884 48.3235 52.9705 46.5352 54.2684C44.7468 55.5663 42.9008 55.632 40.7048 55.632H36.4744L36.459 40.8954ZM41.3432 52.9705C44.543 52.9705 46.0621 51.6108 46.0621 48.2733C46.0621 44.9359 44.5046 43.5723 41.3432 43.5723H39.5972V52.9705H41.3432Z" fill="#231F20"/>
<path d="M55.3653 40.8954H58.9573L64.6184 55.632H61.0495L59.8611 52.4992H54.1769L53.15 55.632H49.7849L55.3653 40.8954ZM57.4805 45.2642C57.3058 44.6134 57.1684 43.9531 57.069 43.2864C56.9617 43.9697 56.8179 44.6467 56.6383 45.3144L55.0576 50.0116H59.1188L57.4805 45.2642Z" fill="#231F20"/>
<path d="M66.1565 40.8954H69.7678C73.5252 40.8954 75.4135 42.2744 75.4135 45.4303C75.4135 48.2308 73.4906 50.0039 70.1793 50.0039H69.3178V55.632H66.1565V40.8954ZM69.7678 47.551C71.41 47.551 72.2099 46.9329 72.2099 45.3067C72.2099 43.8195 71.4407 43.2246 69.7678 43.2246H69.3178V47.551H69.7678Z" fill="#231F20"/>
<path d="M84.563 55.632L80.7172 48.7485V55.632H77.552V40.8954H82.044C85.6168 40.8954 87.3782 42.2976 87.3782 45.0788C87.4144 46.0157 87.0995 46.9323 86.4957 47.6474C85.8919 48.3626 85.0431 48.8244 84.1169 48.9416L88.1589 55.6397L84.563 55.632ZM81.1787 47.1802C83.1285 47.1802 84.2977 47.0141 84.2977 45.3067C84.2977 43.5993 83.167 43.3058 81.1787 43.3058H80.7056V47.1686L81.1787 47.1802Z" fill="#231F20"/>
<path d="M90.001 40.8954H98.6388V43.553H93.1392V46.5814H98.6388V49.2622H93.1392V52.9512H98.6388V55.632H90.001V40.8954Z" fill="#231F20"/>
<path d="M101.715 40.8954H104.976L111.461 49.4669C112.006 50.2661 112.448 51.1319 112.776 52.0434C112.621 51.0832 112.552 50.1111 112.568 49.1386V40.8954H115.564V55.632H112.487L105.819 46.8904C105.275 46.084 104.834 45.2118 104.507 44.2946C104.66 45.2628 104.728 46.2425 104.711 47.2226V55.632H101.715V40.8954Z" fill="#231F20"/>
<path d="M118.83 40.8954H127.467V43.553H121.968V46.5814H127.467V49.2622H121.968V52.9512H127.467V55.632H118.83V40.8954Z" fill="#231F20"/>
<path d="M143.162 50.0657C143.162 54.0444 141.089 56.0221 136.843 56.0221C132.598 56.0221 130.482 54.0637 130.482 50.0657V40.8954H133.601V49.5635C133.601 52.0164 134.69 53.2332 136.801 53.2332C138.913 53.2332 140.043 51.9739 140.043 49.5635V40.8954H143.162V50.0657Z" fill="#231F20"/>
<path d="M153.4 55.632L149.554 48.7485V55.632H146.393V40.8954H150.889C154.458 40.8954 156.223 42.2976 156.223 45.0788C156.259 46.0163 155.944 46.9334 155.339 47.6486C154.735 48.3639 153.885 48.8253 152.958 48.9416L157 55.6397L153.4 55.632ZM150.016 47.1802C151.966 47.1802 153.135 47.0141 153.135 45.3067C153.135 43.5993 152.008 43.3058 150.016 43.3058H149.543V47.1686L150.016 47.1802Z" fill="#231F20"/>
</svg>
